<svg class="svg-icon" style="width: 1.25em; height: 1em;vertical-align: middle;fill: currentColor;overflow: hidden;" viewBox="0 0 1280 1024" version="1.1" xmlns="http://www.w3.org/2000/svg"><path d="M512 576c0 70.7 57.32 128 128 128 70.7 0 128-57.3 128-128s-57.3-128-128-128c-70.68 0-128 57.3-128 128z m448 0c0 70.7 57.32 128 128 128 70.7 0 128-57.3 128-128s-57.3-128-128-128c-70.68 0-128 57.3-128 128zM192 704c70.7 0 128-57.3 128-128s-57.3-128-128-128c-70.68 0-128 57.3-128 128s57.32 128 128 128z m960 64h-128c-70.68 0-128 57.3-128 128v64c0 35.34 28.66 64 64 64h256c35.34 0 64-28.66 64-64v-64c0-70.7-57.32-128-128-128z m-448 0h-128c-70.68 0-128 57.3-128 128v64c0 35.34 28.66 64 64 64h256c35.34 0 64-28.66 64-64v-64c0-70.7-57.32-128-128-128z m-448 0H128c-70.68 0-128 57.3-128 128v64c0 35.34 28.66 64 64 64h256c35.34 0 64-28.66 64-64v-64c0-70.7-57.32-128-128-128zM192 128h896v256c49.36 0 93.96 19.24 128 49.94V99.18C1216 44.5 1172.94 0 1120 0H160C107.06 0 64 44.5 64 99.18v334.76C98.04 403.24 142.66 384 192 384V128z"  /></svg>