<?xml version="1.0" standalone="no"?>
<!DOCTYPE svg PUBLIC "-//W3C//DTD SVG 20010904//EN"
 "http://www.w3.org/TR/2001/REC-SVG-20010904/DTD/svg10.dtd">
<svg version="1.0" xmlns="http://www.w3.org/2000/svg"
 width="502.000000pt" height="481.000000pt" viewBox="0 0 502.000000 481.000000"
 preserveAspectRatio="xMidYMid meet">

<g transform="translate(0.000000,481.000000) scale(0.100000,-0.100000)"
fill="#000000" stroke="none">
<path d="M2558 4554 c-4 -3 -37 -6 -75 -6 -41 0 -71 -4 -75 -11 -5 -8 -8 -8
-8 -1 0 6 -13 9 -32 5 -32 -4 -32 -5 -8 -12 20 -6 16 -7 -20 -8 -25 -1 -56 -4
-70 -7 -20 -4 -22 -3 -10 5 17 12 2 15 -24 5 -12 -5 -14 -10 -6 -19 8 -9 4
-11 -16 -7 -19 3 -22 7 -12 13 10 7 9 9 -5 9 -10 0 -20 -7 -23 -15 -4 -8 -14
-15 -23 -15 -14 0 -14 2 -1 11 12 9 11 10 -5 4 -11 -3 -42 -11 -68 -16 -27 -5
-56 -14 -65 -19 -14 -9 -13 -11 8 -7 14 2 34 8 45 13 19 7 19 7 3 -9 -18 -19
-63 -23 -73 -7 -3 6 -11 10 -16 10 -6 0 -8 -4 -4 -9 3 -6 -3 -15 -14 -20 -29
-16 -38 -13 -15 4 25 19 18 19 -39 -1 -26 -9 -54 -26 -63 -37 -12 -16 -15 -17
-11 -4 8 23 2 22 -24 -5 -12 -13 -18 -17 -14 -9 5 9 3 12 -6 9 -8 -3 -13 -11
-11 -17 1 -6 -2 -11 -8 -11 -5 0 -10 4 -10 10 0 6 -10 5 -25 -2 -13 -6 -22
-16 -18 -21 4 -6 0 -8 -9 -4 -9 3 -59 -16 -115 -44 -98 -49 -158 -88 -136 -89
6 0 15 5 18 10 3 6 13 10 22 10 11 0 9 -5 -8 -20 -13 -10 -19 -19 -12 -20 6 0
15 5 18 10 12 20 22 9 17 -17 -3 -16 -7 -22 -9 -15 -3 6 -20 12 -38 12 -19 0
-37 5 -40 10 -3 6 -11 10 -17 10 -6 0 -3 -9 7 -19 16 -19 16 -20 -3 -18 -11 0
-18 5 -16 9 9 14 -7 9 -32 -11 -14 -11 -20 -22 -14 -26 14 -9 6 -48 -11 -53
-11 -3 -11 -1 1 7 13 9 13 11 -2 11 -9 0 -19 4 -22 9 -4 5 3 7 14 4 11 -3 20
-1 20 5 0 5 -11 10 -25 10 -15 0 -25 -6 -25 -15 0 -10 -6 -13 -16 -9 -8 3 -12
2 -9 -4 3 -6 0 -10 -8 -10 -19 0 -59 -44 -50 -55 5 -4 3 -5 -4 -2 -15 9 -44
-3 -37 -15 4 -6 9 -6 14 2 5 8 9 7 13 -5 5 -10 3 -14 -5 -9 -8 5 -9 -1 -4 -20
4 -18 3 -25 -4 -21 -5 3 -10 15 -10 26 0 10 -4 19 -10 19 -5 0 -10 -8 -10 -19
0 -22 -25 -46 -34 -33 -3 6 1 12 9 16 8 3 15 10 15 16 0 14 -35 -20 -43 -42
-3 -10 -2 -20 3 -23 6 -4 10 -12 10 -18 0 -7 -5 -4 -11 6 -15 26 -43 21 -62
-12 -10 -17 -26 -32 -36 -36 -13 -4 -17 -12 -14 -25 6 -22 -14 -53 -27 -45 -5
3 -11 1 -15 -5 -4 -6 -11 -7 -17 -4 -6 4 -8 2 -4 -4 3 -6 19 -8 34 -6 27 5 43
22 52 59 4 14 16 21 38 23 18 2 32 7 32 13 0 5 8 9 18 9 14 0 13 -4 -7 -19
-13 -10 -33 -16 -45 -14 -17 4 -23 -2 -31 -29 -7 -23 -20 -37 -42 -47 -18 -8
-34 -21 -36 -30 -4 -14 -5 -14 -6 1 -1 11 -7 15 -21 11 -25 -7 -25 -17 0 -29
14 -7 17 -13 10 -24 -8 -13 -10 -13 -10 2 0 11 -5 15 -15 12 -9 -4 -15 0 -15
7 -1 8 -10 -3 -21 -23 -11 -21 -22 -38 -25 -38 -3 0 -2 5 2 12 4 6 3 8 -3 5
-6 -4 -20 -27 -32 -52 -12 -25 -26 -45 -32 -45 -5 0 -7 -5 -4 -10 4 -6 12 -7
18 -3 7 4 6 -1 -2 -11 -13 -15 -13 -19 0 -28 12 -8 12 -9 -1 -5 -8 2 -14 11
-14 20 1 9 -4 13 -12 10 -11 -4 -11 -10 -2 -26 10 -20 10 -21 -5 -8 -15 11
-17 11 -17 -2 0 -8 -8 -18 -17 -21 -14 -6 -15 -9 -4 -15 9 -6 10 -11 2 -15 -6
-4 -8 -19 -5 -35 3 -16 0 -39 -6 -52 l-13 -23 -20 25 c-20 24 -20 24 -14 1 3
-12 1 -20 -3 -17 -17 10 -28 -31 -25 -94 1 -38 -1 -58 -6 -50 -5 8 -6 22 -3
32 3 10 0 17 -7 17 -10 0 -10 3 -1 12 7 7 12 16 12 22 0 5 -6 1 -14 -9 -8 -11
-11 -26 -8 -35 3 -8 2 -12 -3 -8 -12 11 -40 -52 -55 -123 -10 -47 -15 -58 -21
-43 -7 18 -8 18 -8 -2 -1 -25 24 -51 32 -34 3 6 4 5 2 -2 -1 -7 -8 -12 -14
-10 -6 1 -12 -10 -12 -25 -2 -26 -2 -25 -10 7 -7 31 -8 29 -5 -15 3 -49 3 -49
-10 -20 l-13 30 -1 -27 c0 -15 -5 -30 -10 -33 -6 -4 -8 -15 -5 -25 3 -10 1
-21 -5 -25 -5 -3 -10 -11 -10 -16 0 -6 4 -8 8 -5 5 3 8 -14 7 -37 0 -41 -10
-57 -23 -41 -4 4 -1 4 6 0 14 -8 17 10 2 19 -19 12 -14 -62 5 -81 8 -8 11 -23
7 -36 -6 -22 -7 -21 -13 7 l-7 30 -1 -27 c-1 -29 -15 -38 -24 -15 -3 6 -6 -1
-7 -18 -1 -16 -4 -43 -6 -60 -18 -164 -22 -231 -19 -332 2 -65 4 -139 4 -165
1 -34 5 -48 15 -48 7 0 16 -14 20 -31 9 -49 6 -57 -10 -24 -12 25 -13 26 -8 5
4 -14 6 -40 6 -58 0 -18 4 -30 9 -27 5 4 9 17 9 31 0 13 4 24 8 24 11 0 2 -61
-10 -77 -7 -9 -7 -17 -1 -25 6 -7 11 -21 12 -30 3 -41 5 -48 14 -48 5 0 6 8 2
17 -5 14 -3 15 5 7 9 -9 9 -17 0 -34 -6 -12 -8 -29 -4 -38 4 -9 6 -23 5 -29
-1 -7 5 -13 13 -13 20 0 31 -37 16 -55 -9 -10 -8 -20 5 -42 l16 -28 -6 35 -6
35 22 -33 c17 -26 19 -36 10 -45 -9 -9 -11 -7 -6 8 5 15 4 17 -3 6 -6 -8 -7
-21 -4 -30 4 -10 7 -11 10 -3 8 24 18 11 18 -22 -1 -19 -4 -32 -8 -30 -3 2 -4
-6 -1 -17 4 -12 14 -24 24 -26 21 -6 32 -33 24 -56 -4 -8 -1 -18 4 -22 6 -3 9
-9 7 -13 -2 -4 2 -13 10 -20 17 -15 18 -9 3 21 -10 21 -10 21 5 3 18 -23 20
-32 6 -41 -17 -10 1 -35 26 -35 20 0 24 -5 23 -27 0 -27 -1 -27 -9 -5 -5 12
-14 22 -19 22 -6 0 -2 -13 7 -30 17 -29 49 -43 39 -17 -3 8 1 14 8 14 9 0 11
-6 6 -16 -5 -9 -6 -23 -4 -31 4 -13 3 -13 -7 0 -10 13 -11 12 -6 -3 3 -10 6
-21 6 -23 0 -3 5 -2 12 2 7 5 9 2 5 -8 -7 -19 20 -61 34 -52 6 3 9 0 8 -7 -5
-21 21 -60 33 -53 7 5 9 2 6 -7 -9 -22 16 -49 40 -44 15 3 19 0 15 -12 -5 -12
-7 -12 -14 -1 -7 10 -9 10 -9 0 0 -7 12 -24 28 -38 15 -14 27 -30 27 -34 0
-11 14 -25 26 -26 22 -3 23 -5 9 -14 -12 -7 -10 -9 8 -7 29 2 28 11 -4 36 -25
20 -26 21 -5 21 11 0 21 -5 21 -11 0 -5 3 -8 8 -5 4 2 8 -11 8 -30 0 -26 -3
-33 -13 -29 -8 3 -11 0 -7 -6 3 -6 14 -9 24 -6 13 3 17 0 13 -10 -3 -8 5 -25
17 -38 19 -20 26 -23 39 -12 12 9 13 9 7 -1 -13 -21 30 -71 59 -67 16 1 24 -2
22 -9 -3 -6 -11 -10 -18 -8 -8 2 2 -13 20 -32 36 -37 55 -44 67 -24 5 8 2 9
-11 4 -11 -4 -22 -2 -27 6 -11 18 -10 28 3 28 5 0 7 -4 4 -10 -3 -5 -1 -10 5
-10 6 0 13 7 17 17 5 14 8 13 15 -6 4 -13 4 -30 -2 -41 -7 -13 -7 -21 2 -26 7
-5 9 -2 4 7 -4 8 0 5 8 -5 13 -16 19 -17 28 -8 7 7 16 12 21 12 5 0 0 -8 -12
-17 l-20 -18 27 -19 c27 -19 27 -19 10 0 -16 19 -16 20 2 20 10 0 17 -3 14 -7
-9 -16 10 -39 67 -79 32 -23 59 -37 59 -31 0 5 -9 13 -21 16 -11 4 -19 9 -16
11 10 10 39 -10 48 -33 5 -13 13 -22 18 -18 5 3 21 -6 35 -20 14 -14 31 -25
38 -25 9 0 9 3 -2 11 -13 9 -13 10 0 6 8 -2 14 -10 12 -16 -3 -14 237 -133
256 -126 7 2 11 1 8 -4 -5 -7 31 -22 49 -21 3 0 19 -7 35 -15 17 -9 30 -11 30
-5 0 5 7 10 15 10 8 0 12 -6 9 -14 -4 -12 1 -14 21 -10 17 3 24 1 20 -6 -3 -5
1 -10 10 -10 9 0 13 5 10 10 -3 6 -1 10 4 10 6 0 11 -7 11 -15 0 -9 6 -12 17
-8 12 5 14 3 8 -7 -8 -13 0 -13 50 5 19 6 19 6 1 -9 -18 -15 -18 -15 0 -15 11
1 30 -3 43 -7 16 -5 22 -4 18 3 -4 6 2 13 13 16 19 5 24 -12 7 -24 -5 -3 36
-13 90 -21 54 -8 100 -12 103 -9 9 11 55 6 69 -7 14 -14 65 -12 185 4 31 4 56
2 71 -6 16 -9 42 -10 82 -6 32 4 75 7 96 7 20 0 37 4 37 9 0 6 15 9 33 8 50
-3 152 13 138 22 -9 5 -7 9 8 13 12 3 21 1 21 -5 0 -5 8 -7 18 -5 9 3 34 8 55
12 24 4 35 10 31 17 -5 7 -1 9 9 5 12 -4 17 -1 17 10 0 13 3 14 12 5 17 -17
35 -15 58 8 11 11 37 26 57 35 33 13 36 13 19 0 -11 -8 -26 -15 -33 -15 -7 0
-13 -4 -13 -9 0 -5 15 -4 35 2 19 6 35 14 35 19 0 5 5 6 10 3 6 -3 10 -2 10 3
0 5 -12 14 -26 21 -15 6 -24 14 -22 17 3 3 22 -5 42 -17 20 -11 36 -16 36 -10
0 6 10 11 23 11 18 0 19 2 7 11 -12 8 -10 10 10 5 18 -4 56 11 140 55 63 33
123 69 132 80 9 11 23 18 30 17 7 -2 13 6 13 16 0 10 9 23 20 27 29 11 37 10
29 -3 -4 -7 7 -2 24 11 18 12 29 27 26 33 -5 7 -2 8 6 3 8 -5 18 -1 27 11 8
10 15 17 16 14 1 -2 13 3 27 13 21 15 23 19 10 27 -12 8 -9 10 13 10 15 0 30
7 33 15 4 8 12 15 19 15 23 0 28 20 9 41 -13 14 -14 18 -3 15 24 -9 44 12 44
46 0 31 2 33 35 33 26 0 37 6 46 23 10 20 12 21 18 6 6 -15 10 -14 38 12 17
16 48 50 68 76 31 38 38 55 36 83 -3 29 -1 33 10 24 16 -13 19 -33 4 -24 -5 3
-10 1 -10 -5 0 -19 22 -6 31 19 5 13 5 20 0 16 -5 -3 -12 -1 -16 4 -3 6 4 8
16 6 29 -6 48 21 43 59 -2 18 4 44 16 63 19 33 15 44 -8 21 -9 -9 -12 -9 -12
0 0 13 1 13 37 17 18 2 21 -1 13 -16 -6 -9 -7 -26 -4 -36 5 -15 4 -15 -5 -3
-5 8 -13 11 -18 7 -4 -5 -1 -12 7 -17 16 -10 31 4 51 45 10 20 10 20 -5 1 -9
-11 -16 -15 -16 -8 0 6 8 17 18 24 9 7 31 37 49 66 25 40 29 52 17 52 -9 0
-18 -9 -21 -20 -3 -11 -9 -20 -14 -20 -5 0 -5 -7 -2 -17 5 -12 3 -14 -7 -8
-10 6 -12 4 -6 -11 4 -10 4 -15 -1 -11 -4 5 -8 25 -9 45 -2 27 0 32 6 17 7
-19 9 -18 19 7 8 21 17 28 36 28 15 0 24 4 20 10 -9 14 -48 12 -65 -3 -8 -6
-6 -2 3 10 15 17 24 20 46 13 26 -7 30 -4 45 26 8 19 11 34 6 34 -6 0 -10 -8
-10 -17 0 -13 -4 -10 -14 9 -15 28 -11 68 6 68 5 0 4 -9 -3 -21 -7 -14 -7 -25
-1 -31 7 -7 12 0 17 20 6 30 35 66 35 44 0 -6 -4 -12 -9 -14 -4 -2 -11 -14
-15 -28 -5 -18 0 -14 18 15 19 29 22 41 13 47 -9 6 -9 8 1 8 7 0 11 4 8 8 -3
5 8 33 24 63 29 54 42 96 15 49 -10 -18 -14 -20 -15 -8 0 9 10 24 22 32 12 9
19 16 14 16 -5 0 -3 6 3 13 6 8 12 27 14 43 2 17 6 34 9 39 3 6 11 35 18 65 6
30 16 72 22 93 5 22 7 41 5 44 -9 8 -28 -37 -21 -49 4 -7 3 -8 -5 -4 -8 6 -10
1 -6 -17 6 -24 -9 -46 -23 -32 -3 3 0 10 7 14 10 7 11 13 1 31 -7 12 -7 20 -2
16 6 -3 13 7 17 24 4 16 11 30 16 30 4 0 6 13 3 29 -4 17 -1 32 5 36 8 5 10
-1 5 -21 -5 -20 -4 -25 5 -19 9 5 11 19 6 42 -4 21 -2 33 3 29 5 -3 11 23 14
57 9 107 2 440 -11 492 -10 46 -17 91 -20 140 -1 17 -3 18 -12 5 -8 -12 -9 -9
-5 12 3 15 1 30 -5 33 -6 4 -7 19 -3 37 5 26 4 30 -10 25 -17 -7 -22 8 -6 18
6 3 10 11 10 16 0 6 -5 7 -12 3 -8 -5 -9 -2 -5 10 4 10 4 23 0 29 -4 7 -8 14
-9 17 -10 54 -18 80 -25 80 -5 0 -9 11 -9 24 0 14 -5 28 -10 31 -6 4 -8 11 -5
16 4 5 1 9 -4 9 -14 0 -14 -4 6 -60 13 -37 14 -54 6 -81 -10 -32 -10 -30 -9
25 1 39 -3 61 -11 63 -15 5 -17 49 -4 58 6 3 6 17 -1 35 -9 28 -22 35 -58 31
-9 -1 -11 1 -5 6 13 10 16 63 4 63 -5 0 -9 -6 -9 -12 0 -9 -3 -8 -9 2 -13 19
-4 31 16 23 15 -6 16 -5 3 9 -8 9 -18 14 -22 11 -5 -2 -8 9 -8 24 0 16 -4 33
-9 38 -5 6 -11 19 -13 30 -2 11 -10 20 -18 20 -9 0 -15 9 -14 22 0 15 -4 19
-15 15 -14 -5 -14 -4 -1 13 9 11 10 16 3 11 -8 -4 -13 -1 -13 8 0 9 -4 16 -10
16 -5 0 -10 10 -10 23 0 18 -2 19 -11 7 -9 -12 -10 -11 -6 7 5 24 -16 49 -33
38 -5 -3 -10 1 -10 10 0 10 5 13 12 9 14 -9 -31 58 -46 68 -6 4 -16 2 -22 -3
-9 -7 -16 -4 -24 10 -6 12 -18 21 -28 22 -10 0 -12 3 -4 6 6 2 12 9 12 14 0
12 -43 7 -52 -6 -4 -5 -6 4 -4 20 2 17 -1 36 -6 42 -6 7 -7 20 -4 29 9 24 -13
48 -30 33 -17 -14 -18 3 -1 20 10 10 8 11 -7 5 -14 -5 -17 -4 -12 5 12 18 -77
103 -99 94 -14 -5 -17 -3 -12 10 3 8 -1 21 -10 29 -14 11 -15 10 -10 -7 4 -11
2 -26 -2 -34 -13 -21 -41 4 -41 35 0 18 4 22 17 17 12 -5 11 -1 -5 15 -12 12
-24 22 -27 22 -3 0 -19 16 -36 34 -18 21 -36 33 -45 29 -8 -3 -14 1 -14 10 0
9 -10 15 -25 15 -14 0 -25 -3 -25 -7 0 -12 59 -33 72 -25 11 6 11 4 0 -7 -10
-11 -16 -11 -32 -1 -25 15 -52 16 -30 1 13 -9 13 -10 0 -6 -8 2 -15 17 -16 35
-1 27 1 30 17 21 33 -17 20 -2 -16 20 -23 13 -35 16 -35 8 0 -8 -4 -7 -9 3 -6
8 -7 18 -5 22 3 4 -2 5 -10 2 -9 -3 -16 -1 -16 6 0 6 -4 8 -10 5 -5 -3 -10 -1
-10 5 0 6 -12 16 -27 22 -16 7 -41 22 -58 34 -42 30 -108 57 -103 42 3 -7 19
-15 37 -19 17 -4 35 -10 39 -14 4 -5 -1 -5 -11 -2 -10 4 -30 7 -43 7 -18 0
-28 8 -37 28 -7 17 -18 27 -26 24 -9 -3 -11 0 -6 8 5 8 3 11 -6 8 -8 -3 -13
-10 -12 -15 1 -6 -12 -10 -30 -11 l-32 -1 30 16 30 16 -40 18 c-52 23 -54 23
-48 -2 5 -17 11 -20 37 -15 18 4 26 3 21 -3 -6 -5 -31 -11 -58 -14 -46 -4 -47
-4 -27 13 15 13 17 20 9 25 -6 4 -15 1 -20 -6 -6 -10 -9 -8 -9 8 0 13 5 21 13
19 6 -1 9 -1 5 1 -4 3 -10 4 -14 3 -4 -1 -10 3 -13 8 -3 5 -17 12 -31 16 -24
7 -24 6 -6 -8 23 -18 14 -21 -15 -5 -11 5 -17 15 -13 20 3 6 -4 5 -16 -3 -19
-11 -23 -10 -39 8 -12 15 -49 29 -124 48 -117 29 -129 30 -107 16 12 -8 10
-10 -8 -10 -13 0 -21 4 -17 9 6 11 -33 26 -42 17 -4 -3 1 -6 10 -6 9 0 17 -4
17 -10 0 -6 -9 -6 -26 0 -14 6 -49 11 -77 11 -47 2 -49 2 -17 8 l35 7 -37 5
c-21 3 -38 1 -38 -3 0 -4 -5 -8 -11 -8 -5 0 -7 5 -4 10 4 6 -9 10 -32 9 -34
-1 -35 -2 -13 -9 15 -5 18 -8 8 -9 -9 -1 -24 -4 -33 -7 -10 -4 -15 -2 -13 6 2
7 -3 15 -9 17 -7 3 -13 -2 -13 -11 0 -9 -6 -16 -14 -16 -8 0 -13 8 -12 18 1
13 -8 18 -44 20 -25 2 -49 0 -52 -4z m65 -11 c-13 -2 -33 -2 -45 0 -13 2 -3 4
22 4 25 0 35 -2 23 -4z m-74 -19 c8 -7 -64 -2 -89 6 -16 6 -6 7 30 3 30 -3 57
-7 59 -9z m-180 -18 c-2 -3 -27 -7 -54 -10 -33 -3 -43 -2 -30 4 20 9 92 14 84
6z m190 0 c-11 -9 -69 -15 -64 -6 3 6 20 10 37 10 17 0 29 -2 27 -4z m144 -3
c-13 -2 -33 -2 -45 0 -13 2 -3 4 22 4 25 0 35 -2 23 -4z m207 -3 c10 -6 1 -8
-30 -4 -24 3 -47 7 -49 10 -9 8 65 3 79 -6z m244 -43 c-1 -12 6 -17 26 -17 15
0 41 -7 56 -15 18 -9 23 -15 12 -15 -9 0 -20 5 -23 10 -3 6 -18 10 -33 10 -45
0 -76 11 -60 21 11 7 10 11 -2 20 -12 8 -12 9 5 7 12 -2 19 -11 19 -21z m53
-3 c-3 -3 -12 -4 -19 -1 -8 3 -5 6 6 6 11 1 17 -2 13 -5z m-1142 -24 c14 -6 2
-8 -35 -5 -40 3 -48 2 -30 -4 16 -6 19 -9 8 -10 -9 -1 -24 2 -33 5 -13 5 -14
8 -3 15 17 11 67 10 93 -1z m-155 -10 c0 -5 -10 -10 -22 -9 -22 0 -22 1 -3 9
11 5 21 9 23 9 1 1 2 -3 2 -9z m1277 -6 c-3 -3 -12 -4 -19 -1 -8 3 -5 6 6 6
11 1 17 -2 13 -5z m-1363 -61 c16 -9 11 -10 -27 -6 -31 4 -47 2 -47 -6 0 -6
-5 -11 -11 -11 -8 0 -9 4 0 13 6 8 9 16 7 18 -10 9 61 2 78 -8z m-21 -20 c-7
-2 -19 -2 -25 0 -7 3 -2 5 12 5 14 0 19 -2 13 -5z m1624 1 c-3 -3 -12 -4 -19
-1 -8 3 -5 6 6 6 11 1 17 -2 13 -5z m-1751 -50 c-8 -20 -47 -34 -68 -22 -10 5
-18 5 -18 1 0 -4 -11 -8 -24 -8 -20 0 -22 3 -15 17 5 10 22 20 37 23 15 4 35
10 45 16 11 6 17 6 17 0 0 -13 -11 -19 -51 -26 -43 -8 -51 -15 -13 -14 69 3
84 9 85 37 1 18 3 21 6 9 3 -10 2 -25 -1 -33z m601 40 c-3 -3 -12 -4 -19 -1
-8 3 -5 6 6 6 11 1 17 -2 13 -5z m49 -3 c14 -13 106 -23 99 -11 -3 6 4 10 17
10 22 -1 22 -1 4 -15 -23 -18 -111 -12 -132 9 -16 16 -6 23 12 7z m57 2 c-7
-2 -19 -2 -25 0 -7 3 -2 5 12 5 14 0 19 -2 13 -5z m130 0 c-7 -2 -21 -2 -30 0
-10 3 -4 5 12 5 17 0 24 -2 18 -5z m334 1 c-3 -3 -12 -4 -19 -1 -8 3 -5 6 6 6
11 1 17 -2 13 -5z m133 -4 l25 -8 -25 -2 -25 -2 25 -8 c17 -6 9 -7 -25 -3 -60
7 -70 13 -24 14 32 1 32 2 9 9 -20 6 -21 8 -5 8 11 0 31 -4 45 -8z m-715 -9
c29 -7 29 -7 -14 -14 -24 -4 -46 -5 -49 -2 -3 3 6 5 19 6 l24 1 -25 8 c-20 6
-21 8 -5 8 11 0 34 -3 50 -7z m292 3 c-3 -3 -12 -4 -19 -1 -8 3 -5 6 6 6 11 1
17 -2 13 -5z m116 -1 c-7 -2 -19 -2 -25 0 -7 3 -2 5 12 5 14 0 19 -2 13 -5z
m102 -2 c-3 -5 3 -12 12 -14 14 -4 14 -5 2 -6 -8 0 -24 6 -35 14 -18 14 -18
14 4 15 13 0 21 -4 17 -9z m-268 -7 c-3 -3 -12 -4 -19 -1 -8 3 -5 6 6 6 11 1
17 -2 13 -5z m533 -4 c0 -5 -4 -10 -10 -10 -5 0 -10 5 -10 10 0 6 5 10 10 10
6 0 10 -4 10 -10z m-172 -7 c-10 -2 -26 -2 -35 0 -10 3 -2 5 17 5 19 0 27 -2
18 -5z m-658 -19 c0 -2 -11 -4 -25 -4 -14 0 -25 4 -25 9 0 4 11 6 25 3 14 -2
25 -6 25 -8z m93 9 c-7 -2 -19 -2 -25 0 -7 3 -2 5 12 5 14 0 19 -2 13 -5z
m620 0 c-7 -2 -19 -2 -25 0 -7 3 -2 5 12 5 14 0 19 -2 13 -5z m105 -10 c-10
-2 -26 -2 -35 0 -10 3 -2 5 17 5 19 0 27 -2 18 -5z m610 -8 c3 -3 -15 -5 -41
-5 -25 0 -53 -3 -63 -7 -16 -6 -17 -5 -4 9 10 10 28 14 59 12 24 -2 46 -6 49
-9z m-1601 -34 c15 -9 13 -10 -11 -5 -20 5 -27 3 -22 -4 4 -7 -12 -5 -39 4
-25 9 -45 17 -45 18 0 8 101 -4 117 -13z m90 13 c-3 -3 -12 -4 -19 -1 -8 3 -5
6 6 6 11 1 17 -2 13 -5z m970 0 c-3 -3 -12 -4 -19 -1 -8 3 -5 6 6 6 11 1 17
-2 13 -5z m114 -1 c-10 -4 -10 -7 -1 -13 8 -5 7 -9 -5 -13 -10 -4 -14 -3 -10
4 4 6 -3 7 -22 3 -19 -4 -25 -3 -18 4 6 5 19 12 30 15 28 6 43 7 26 0z m133
-8 c-6 -16 -24 -21 -24 -7 0 11 11 22 21 22 5 0 6 -7 3 -15z m-1489 -5 c3 -5
1 -10 -4 -10 -6 0 -11 5 -11 10 0 6 2 10 4 10 3 0 8 -4 11 -10z m1408 3 c-7
-2 -19 -2 -25 0 -7 3 -2 5 12 5 14 0 19 -2 13 -5z m467 -3 c24 -15 7 -19 -20
-5 -15 8 -19 14 -10 14 8 1 22 -3 30 -9z m-1790 -14 c0 -2 -7 -7 -16 -10 -8
-3 -12 -2 -9 4 6 10 25 14 25 6z m1386 -33 c16 -16 32 -23 45 -20 10 3 17 1
14 -3 -3 -5 3 -13 12 -19 10 -6 13 -11 6 -11 -6 0 -14 4 -18 9 -3 5 -19 12
-36 16 -17 4 -33 14 -36 22 -3 8 -13 13 -22 10 -9 -2 -29 2 -46 10 l-30 13 35
-5 c27 -5 32 -4 20 5 -12 9 -11 10 8 5 12 -4 34 -18 48 -32z m379 27 c3 -5 20
-10 36 -10 17 0 28 -4 25 -9 -3 -5 -15 -7 -26 -4 -11 3 -26 0 -34 -6 -11 -9
-15 -6 -18 14 -5 25 5 34 17 15z m-1725 -4 c0 -2 -9 -6 -20 -9 -11 -3 -18 -1
-14 4 5 9 34 13 34 5z m-90 -24 c0 -14 -11 -21 -26 -15 -8 3 -11 9 -8 14 7 11
34 12 34 1z m-130 -25 c0 -7 -14 -18 -32 -25 -41 -15 -48 -8 -9 9 17 8 31 17
31 21 0 5 2 8 5 8 3 0 5 -6 5 -13z m64 -13 c-15 -8 -29 -12 -32 -9 -3 2 3 7
12 11 9 3 14 10 11 14 -3 5 4 6 15 3 19 -5 19 -6 -6 -19z m1601 16 c-3 -5 -12
-10 -18 -10 -7 0 -6 4 3 10 19 12 23 12 15 0z m85 0 c8 -5 12 -11 10 -14 -3
-2 -14 2 -24 10 -22 15 -10 19 14 4z m-22 -23 c6 -7 7 -18 3 -25 -6 -11 -15
-10 -42 1 l-34 15 40 -5 c40 -4 40 -4 15 11 -18 11 -20 15 -9 16 9 0 21 -6 27
-13z m-1708 -11 c0 -2 -13 -9 -30 -15 -35 -12 -41 -5 -7 9 25 10 37 12 37 6z
m-473 -32 c-3 -3 -12 -4 -19 -1 -8 3 -5 6 6 6 11 1 17 -2 13 -5z m398 -4 c3
-5 2 -10 -4 -10 -5 0 -13 5 -16 10 -3 6 -2 10 4 10 5 0 13 -4 16 -10z m1859
-15 c18 5 18 4 4 -5 -19 -12 -71 6 -62 22 3 4 12 1 21 -7 9 -9 24 -13 37 -10z
m-2294 12 c0 -2 -10 -12 -21 -23 -22 -19 -22 -19 -10 4 10 18 31 31 31 19z
m359 -14 c-12 -15 -12 -16 4 -10 42 17 52 20 47 15 -9 -9 -144 -89 -154 -91
-9 -2 -20 -11 -68 -54 -18 -16 -28 -19 -39 -11 -11 8 -11 9 3 4 11 -3 19 2 23
15 4 10 12 19 18 19 7 0 18 9 25 21 8 12 19 18 27 15 8 -3 27 6 41 19 15 14
33 25 41 25 8 0 13 6 10 13 -2 6 3 17 12 24 22 17 26 16 10 -4z m2041 7 c24
-15 7 -18 -20 -3 -14 7 -18 13 -10 13 8 0 22 -4 30 -10z m287 -5 c3 -9 -2 -22
-13 -30 -11 -7 -15 -17 -11 -21 4 -5 12 -2 18 6 8 13 10 13 19 0 8 -12 11 -13
19 -1 5 8 11 9 15 3 7 -12 -10 -19 -49 -18 -26 1 -30 5 -31 31 0 17 1 33 3 38
7 12 23 8 30 -8z m-2417 1 c0 -3 -4 -8 -10 -11 -5 -3 -10 -1 -10 4 0 6 5 11
10 11 6 0 10 -2 10 -4z m-265 -25 c-3 -6 -11 -11 -16 -11 -5 0 -4 6 3 14 14
16 24 13 13 -3z m315 9 c0 -5 -7 -10 -16 -10 -8 0 -12 5 -9 10 3 6 10 10 16
10 5 0 9 -4 9 -10z m2004 -5 c-4 -10 0 -15 15 -15 12 0 21 -4 21 -9 0 -6 -12
-6 -30 0 -39 14 -39 25 -3 38 1 1 0 -6 -3 -14z m49 6 c15 -6 26 -20 29 -35 4
-21 3 -24 -8 -15 -8 6 -14 18 -14 25 0 8 -9 14 -20 14 -11 0 -20 5 -20 10 0
12 3 12 33 1z m-2093 -18 c0 -5 -5 -15 -10 -23 -8 -12 -10 -11 -10 8 0 12 5
22 10 22 6 0 10 -3 10 -7z m-280 -27 c-6 -6 -18 -5 -32 1 -21 10 -21 10 9 9
19 -1 28 -5 23 -10z m212 -15 c-8 -4 -13 -12 -12 -17 1 -5 -3 -10 -9 -12 -15
-5 -14 25 2 31 20 9 33 7 19 -2z m2256 0 c11 -6 11 -10 0 -18 -22 -17 -44 -25
-24 -9 24 20 15 32 -12 17 -31 -16 -41 -13 -12 4 30 17 31 17 48 6z m17 -41
c-1 -11 -5 -23 -10 -27 -4 -5 -5 -2 -1 5 5 7 1 12 -10 12 -16 0 -16 1 2 15 10
8 19 15 20 15 0 0 0 -9 -1 -20z m-2575 6 c0 -3 -4 -8 -10 -11 -5 -3 -10 -1
-10 4 0 6 5 11 10 11 6 0 10 -2 10 -4z m13 -27 c-6 -6 -19 -9 -29 -6 -16 4
-15 5 4 6 12 0 22 6 22 13 0 6 3 8 7 5 4 -4 2 -12 -4 -18z m2908 -2 c-26 -26
2 -66 48 -67 17 0 22 4 17 16 -3 8 -2 12 4 9 5 -3 8 -16 6 -28 -2 -12 0 -26 3
-32 4 -5 4 -23 0 -40 -7 -31 -11 -20 -12 38 -1 22 -6 27 -26 27 -44 0 -82 56
-51 75 6 4 7 11 4 17 -5 7 -2 8 5 3 9 -5 10 -10 2 -18z m-21 9 c0 -3 -4 -8
-10 -11 -5 -3 -10 -1 -10 4 0 6 5 11 10 11 6 0 10 -2 10 -4z m44 -18 c-4 -6 1
-17 11 -25 16 -11 17 -13 3 -13 -9 0 -20 5 -23 10 -7 12 0 40 10 40 4 0 3 -5
-1 -12z m-3045 -29 c-24 -15 -30 -10 -11 9 9 10 19 14 21 9 2 -5 -3 -13 -10
-18z m2716 22 c-3 -5 7 -19 21 -30 35 -28 21 -27 -16 1 -22 16 -27 24 -18 30
17 10 20 10 13 -1z m42 -12 c2 -17 -1 -18 -13 -8 -13 11 -10 20 11 29 1 0 1
-9 2 -21z m-2461 -19 c0 -11 -4 -20 -8 -20 -10 0 -11 24 -1 33 9 9 9 10 9 -13z
m39 10 c-3 -5 -11 -10 -16 -10 -6 0 -7 5 -4 10 3 6 11 10 16 10 6 0 7 -4 4
-10z m-208 -72 c-3 -8 -6 -5 -6 6 -1 11 2 17 5 13 3 -3 4 -12 1 -19z m53 1 c0
-5 -7 -9 -15 -9 -8 0 -15 7 -15 15 0 9 6 12 15 9 8 -4 15 -10 15 -15z m30 4
c0 -15 2 -14 15 3 10 12 14 14 13 5 -4 -21 -31 -51 -45 -51 -7 0 -13 -6 -13
-14 0 -23 -16 -27 -17 -5 -2 19 29 44 41 32 3 -3 6 -1 6 5 0 6 -4 14 -10 17
-5 3 -10 10 -10 16 0 5 5 9 10 9 6 0 10 -8 10 -17z m2610 -4 c0 -5 -4 -9 -10
-9 -5 0 -10 7 -10 16 0 8 5 12 10 9 6 -3 10 -10 10 -16z m46 -7 c-4 -3 -14 2
-24 12 -16 18 -16 18 6 6 13 -6 21 -14 18 -18z m279 -2 c3 -5 -1 -10 -9 -10
-9 0 -16 5 -16 10 0 6 4 10 9 10 6 0 13 -4 16 -10z m-2995 -20 c0 -5 -4 -10
-10 -10 -5 0 -10 5 -10 10 0 6 5 10 10 10 6 0 10 -4 10 -10z m2730 -32 c0 -4
5 -8 11 -8 7 0 9 10 5 26 -5 17 -3 23 4 19 5 -3 10 -15 10 -26 0 -10 7 -19 15
-19 43 0 92 -97 55 -107 -11 -3 -12 -2 -2 4 19 14 -12 68 -48 87 -32 16 -42 3
-11 -13 10 -6 26 -23 36 -38 10 -15 -12 1 -48 37 -36 36 -63 69 -60 74 6 9 33
-21 33 -36z m-2925 13 c-3 -6 -11 -11 -16 -11 -5 0 -4 6 3 14 14 16 24 13 13
-3z m3180 9 c3 -5 1 -10 -4 -10 -6 0 -11 5 -11 10 0 6 2 10 4 10 3 0 8 -4 11
-10z m-2988 -35 c0 -8 -4 -12 -9 -9 -5 3 -6 10 -3 15 9 13 12 11 12 -6z m2853
-13 c0 -8 -1 -13 -3 -11 -1 2 -9 12 -16 22 -12 15 -12 17 3 11 9 -3 16 -13 16
-22z m-2885 8 c-3 -5 -11 -10 -16 -10 -6 0 -7 5 -4 10 3 6 11 10 16 10 6 0 7
-4 4 -10z m-55 -55 c-16 -42 -4 -42 21 -1 12 21 26 33 32 29 8 -5 8 -8 -1 -11
-7 -2 -12 -8 -12 -13 0 -6 -13 -24 -29 -41 l-29 -31 4 42 c4 42 12 66 20 58 3
-2 0 -17 -6 -32z m-268 -27 c-13 -13 -16 -32 -4 -24 4 2 8 -3 8 -13 0 -12 -8
-17 -26 -17 -22 0 -26 3 -22 23 2 12 8 21 12 18 4 -3 13 2 20 10 7 8 15 15 18
15 3 0 1 -5 -6 -12z m3498 -23 c5 3 13 -3 19 -13 8 -15 6 -18 -12 -18 -17 0
-22 6 -23 26 -1 14 1 19 3 12 3 -6 9 -10 13 -7z m-36 -25 c-6 -6 -10 -3 -10
10 0 13 4 16 10 10 7 -7 7 -13 0 -20z m-211 -27 c-3 -7 -6 -13 -8 -13 -2 0 -5
6 -8 13 -3 8 1 14 8 14 7 0 11 -6 8 -14z m34 -10 c1 -22 -1 -24 -8 -10 -6 9
-7 22 -4 27 9 14 10 13 12 -17z m-3067 4 c0 -2 -10 -12 -22 -23 l-23 -19 19
23 c18 21 26 27 26 19z m3346 -19 c4 -7 3 -8 -4 -4 -13 8 -12 -28 1 -40 11
-11 8 -26 -4 -22 -6 2 -10 7 -9 12 1 5 -4 13 -12 17 -10 7 -10 9 0 9 7 0 10 5
7 10 -6 9 1 30 10 30 2 0 7 -5 11 -12z m-3421 -56 c2 -7 1 -11 -4 -8 -4 3 -17
-4 -27 -15 -14 -16 -16 -22 -5 -28 8 -5 9 -11 3 -15 -18 -11 -23 26 -6 46 10
10 14 21 10 25 -4 4 -11 1 -16 -7 -6 -8 -10 -10 -10 -4 0 25 45 31 55 6z
m3211 -9 c1 -13 -2 -20 -7 -17 -5 3 -9 0 -9 -7 0 -8 -4 -8 -15 1 -8 7 -15 18
-15 24 0 6 4 4 10 -4 5 -8 12 -12 15 -8 3 3 -1 12 -9 21 -14 13 -13 15 7 13
15 -1 23 -8 23 -23z m-3429 -5 c-3 -8 -6 -5 -6 6 -1 11 2 17 5 13 3 -3 4 -12
1 -19z m-27 -9 c11 -19 10 -20 -10 -9 -11 6 -18 15 -15 21 9 13 13 11 25 -12z
m3660 -24 c14 -16 10 -18 -14 -9 -9 3 -16 10 -16 15 0 14 16 11 30 -6z m-186
-36 c-9 -15 -24 10 -17 29 5 12 7 12 15 -2 5 -9 6 -21 2 -27z m-3280 5 c3 -8
2 -12 -4 -9 -6 3 -10 10 -10 16 0 14 7 11 14 -7z m2171 -13 c257 -67 455 -260
537 -521 23 -74 23 -80 23 -550 0 -362 -3 -487 -13 -525 -69 -260 -251 -459
-494 -540 -119 -39 -248 -48 -663 -42 -416 5 -454 10 -590 76 -201 96 -335
251 -406 466 -23 68 -23 82 -27 513 -2 288 1 468 8 514 20 132 102 298 194
396 82 88 209 167 326 203 110 33 192 38 625 34 369 -2 406 -4 480 -24z m1352
-3 c-3 -7 -5 -2 -5 12 0 14 2 19 5 13 2 -7 2 -19 0 -25z m-3567 -13 c-6 -15
-13 -25 -17 -21 -3 3 0 17 7 31 17 32 24 26 10 -10z m-33 -7 c-3 -8 -6 -5 -6
6 -1 11 2 17 5 13 3 -3 4 -12 1 -19z m3429 -25 c-5 -12 -9 -13 -21 -3 -17 14
-20 30 -6 30 5 0 12 -8 14 -17 3 -11 6 -6 7 12 1 19 4 24 7 12 3 -10 2 -25 -1
-34z m204 37 c5 8 8 4 7 -11 -2 -18 -8 -25 -23 -25 -19 0 -21 3 -11 24 6 14
13 19 15 12 4 -10 6 -9 12 0z m-3570 -7 c-1 -5 -10 -24 -21 -43 -11 -19 -17
-26 -13 -15 3 11 9 30 11 43 5 20 24 33 23 15z m3318 -18 c-3 -3 -9 2 -12 12
-6 14 -5 15 5 6 7 -7 10 -15 7 -18z m-3447 -129 c-9 -18 -18 -32 -20 -30 -6 5
20 64 29 64 4 0 0 -15 -9 -34z m63 22 c-3 -5 -9 -6 -14 -3 -14 9 -33 -25 -35
-65 -1 -22 -5 -43 -8 -46 -3 -3 -4 14 -3 38 4 52 23 87 47 85 10 -1 15 -5 13
-9z m3476 -9 c0 -6 -4 -7 -10 -4 -5 3 -10 11 -10 16 0 6 5 7 10 4 6 -3 10 -11
10 -16z m34 -50 c-7 -12 -34 8 -34 24 0 6 7 2 15 -9 14 -18 15 -17 10 11 -5
27 -5 28 5 7 5 -13 7 -28 4 -33z m177 4 c-12 -20 -14 -14 -5 12 4 9 9 14 11
11 3 -2 0 -13 -6 -23z m-3954 1 c2 -5 -5 -10 -16 -10 -11 0 -17 5 -14 14 6 14
25 12 30 -4z m3774 -38 c0 10 3 14 5 7 3 -7 1 -19 -3 -28 -8 -13 -11 -11 -21
12 -11 26 -11 27 3 9 15 -20 15 -20 16 0z m-3584 -33 c-3 -10 -5 -4 -5 12 0
17 2 24 5 18 2 -7 2 -21 0 -30z m-67 -43 c0 -11 -4 -20 -9 -20 -5 0 -7 9 -4
20 3 11 7 20 9 20 2 0 4 -9 4 -20z m3727 -27 c-3 -10 -5 -2 -5 17 0 19 2 27 5
18 2 -10 2 -26 0 -35z m-3672 28 c3 -5 1 -12 -5 -16 -5 -3 -10 1 -10 9 0 18 6
21 15 7z m3635 -36 c0 -5 -5 -3 -10 5 -5 8 -10 20 -10 25 0 6 5 3 10 -5 5 -8
10 -19 10 -25z m-3650 -9 c0 -6 -4 -5 -9 3 -7 11 -9 11 -14 0 -3 -8 -6 -3 -6
10 -1 20 1 21 14 11 8 -7 15 -18 15 -24z m3662 -18 c-6 -6 -7 0 -4 19 5 21 7
23 10 9 2 -10 0 -22 -6 -28z m-3662 -2 c0 -3 -4 -8 -10 -11 -5 -3 -10 -1 -10
4 0 6 5 11 10 11 6 0 10 -2 10 -4z m3880 0 c0 -3 -4 -8 -10 -11 -5 -3 -10 -1
-10 4 0 6 5 11 10 11 6 0 10 -2 10 -4z m-3925 -16 c3 -5 1 -10 -4 -10 -6 0
-11 5 -11 10 0 6 2 10 4 10 3 0 8 -4 11 -10z m3745 0 c0 -5 -2 -10 -4 -10 -3
0 -8 5 -11 10 -3 6 -1 10 4 10 6 0 11 -4 11 -10z m-19 -32 c11 -21 11 -22 -4
-9 -10 7 -17 17 -17 22 0 15 9 10 21 -13z m186 -10 c-3 -7 -5 -2 -5 12 0 14 2
19 5 13 2 -7 2 -19 0 -25z m45 -10 c-6 -6 -7 0 -4 19 5 21 7 23 10 9 2 -10 0
-22 -6 -28z m-4135 10 c-3 -8 -6 -5 -6 6 -1 11 2 17 5 13 3 -3 4 -12 1 -19z
m193 4 c0 -5 -7 -9 -15 -9 -8 0 -12 4 -9 9 3 4 9 8 15 8 5 0 9 -4 9 -8z m-19
-65 c-10 -9 -11 -8 -5 6 3 10 9 15 12 12 3 -3 0 -11 -7 -18z m-22 -77 c0 -10
-3 -8 -9 5 -12 27 -12 43 0 25 5 -8 9 -22 9 -30z m3821 -5 c-6 -30 -8 -33 -9
-13 -1 25 8 62 14 56 2 -2 -1 -21 -5 -43z m-3853 -7 c-3 -7 -5 -2 -5 12 0 14
2 19 5 13 2 -7 2 -19 0 -25z m3880 -15 c0 -36 -2 -41 -9 -24 -6 19 -2 71 6 71
2 0 3 -21 3 -47z m170 15 c-3 -8 -6 -5 -6 6 -1 11 2 17 5 13 3 -3 4 -12 1 -19z
m-4070 -45 c-3 -10 -5 -2 -5 17 0 19 2 27 5 18 2 -10 2 -26 0 -35z m3850 15
c-3 -7 -5 -2 -5 12 0 14 2 19 5 13 2 -7 2 -19 0 -25z m223 -25 c-11 -17 -11
-17 -6 0 3 10 6 24 7 30 0 9 2 9 5 0 3 -7 0 -20 -6 -30z m-4043 -25 c-3 -7 -5
-2 -5 12 0 14 2 19 5 13 2 -7 2 -19 0 -25z m-9 -63 c0 -16 -2 -15 -8 5 -4 14
-8 34 -8 45 0 16 2 15 8 -5 4 -14 8 -34 8 -45z m4081 35 c-10 -7 -10 -11 0
-24 7 -8 11 -25 8 -38 -4 -20 -4 -19 -6 5 0 16 -5 26 -11 22 -11 -7 -13 15 -4
39 3 9 11 13 16 10 6 -4 5 -10 -3 -14z m-32 -22 c-3 -8 -6 -5 -6 6 -1 11 2 17
5 13 3 -3 4 -12 1 -19z m-170 -94 c1 -58 0 -104 -2 -102 -12 12 -13 208 -1
208 0 0 2 -48 3 -106z m-3894 31 c4 -27 3 -35 -3 -25 -5 8 -10 28 -10 44 0 39
6 30 13 -19z m-226 13 c-3 -8 -6 -5 -6 6 -1 11 2 17 5 13 3 -3 4 -12 1 -19z
m20 0 c-3 -8 -6 -5 -6 6 -1 11 2 17 5 13 3 -3 4 -12 1 -19z m4280 0 c-3 -8 -6
-5 -6 6 -1 11 2 17 5 13 3 -3 4 -12 1 -19z m-4260 -80 c-3 -7 -5 -2 -5 12 0
14 2 19 5 13 2 -7 2 -19 0 -25z m170 -320 c-3 -7 -5 -2 -5 12 0 14 2 19 5 13
2 -7 2 -19 0 -25z m0 -120 c-3 -8 -6 -5 -6 6 -1 11 2 17 5 13 3 -3 4 -12 1
-19z m3910 0 c-3 -8 -6 -5 -6 6 -1 11 2 17 5 13 3 -3 4 -12 1 -19z m184 -62
c12 7 11 -1 -5 -61 l-13 -50 1 62 c1 35 3 58 4 53 2 -6 8 -8 13 -4z m-4270
-36 c5 0 9 -4 9 -10 0 -5 -7 -10 -15 -10 -11 0 -15 10 -14 33 1 23 3 26 6 10
2 -13 9 -23 14 -23z m176 -12 c-3 -7 -5 -2 -5 12 0 14 2 19 5 13 2 -7 2 -19 0
-25z m3909 -16 c0 -26 -1 -36 -4 -23 -3 19 -6 21 -13 10 -7 -11 -9 -10 -9 4 0
16 16 57 23 57 1 0 2 -21 3 -48z m-3889 -14 c-3 -7 -5 -2 -5 12 0 14 2 19 5
13 2 -7 2 -19 0 -25z m-191 -57 c-1 -38 -4 -64 -8 -57 -12 18 -6 126 6 126 2
0 2 -31 2 -69z m171 37 c-3 -7 -5 -2 -5 12 0 14 2 19 5 13 2 -7 2 -19 0 -25z
m27 -23 c-4 -8 -8 -15 -10 -15 -2 0 -4 7 -4 15 0 8 4 15 10 15 5 0 7 -7 4 -15z
m3863 -7 c-3 -8 -6 -5 -6 6 -1 11 2 17 5 13 3 -3 4 -12 1 -19z m-3857 -55
c-11 -17 -11 -17 -6 0 3 10 7 28 7 40 2 22 2 22 6 0 2 -12 -1 -30 -7 -40z
m3866 12 c3 -13 4 -34 1 -46 -3 -18 -5 -15 -6 10 0 19 -9 43 -18 53 -16 18
-16 18 0 12 10 -3 20 -17 23 -29z m-3893 -30 c5 -28 4 -34 -3 -20 -8 19 -14
73 -6 64 2 -2 6 -22 9 -44z m3864 -2 c-3 -10 -5 -4 -5 12 0 17 2 24 5 18 2 -7
2 -21 0 -30z m-3815 -17 c7 4 8 2 4 -5 -4 -6 -2 -18 4 -26 7 -8 9 -15 5 -15
-12 0 -34 33 -34 50 0 10 2 11 6 2 2 -6 10 -9 15 -6z m3814 -23 c-3 -8 -6 -17
-6 -19 0 -2 -4 -4 -9 -4 -5 0 -8 11 -7 24 0 15 6 22 14 18 7 -2 11 -11 8 -19z
m227 7 c-3 -12 -8 -19 -11 -16 -5 6 5 36 12 36 2 0 2 -9 -1 -20z m-4073 -19
c0 -6 -4 -13 -10 -16 -5 -3 -10 1 -10 9 0 9 5 16 10 16 6 0 10 -4 10 -9z
m3880 -11 c0 -5 -4 -10 -10 -10 -5 0 -10 5 -10 10 0 6 5 10 10 10 6 0 10 -4
10 -10z m177 -22 c-3 -8 -6 -5 -6 6 -1 11 2 17 5 13 3 -3 4 -12 1 -19z m-4054
-15 c-7 -2 -19 -2 -25 0 -7 3 -2 5 12 5 14 0 19 -2 13 -5z m77 -74 c6 -23 9
-44 6 -47 -3 -3 -6 1 -6 8 0 7 -8 19 -17 27 -10 8 -12 12 -5 8 14 -7 17 21 2
30 -5 3 -10 11 -10 16 0 23 20 -5 30 -42z m3721 28 c-10 -9 -11 -8 -5 6 3 10
9 15 12 12 3 -3 0 -11 -7 -18z m0 -31 c5 3 9 0 9 -6 0 -15 -23 -7 -26 8 -1 7
0 8 3 2 2 -5 9 -8 14 -4z m-3911 -41 c0 -5 -5 -3 -10 5 -5 8 -10 20 -10 25 0
6 5 3 10 -5 5 -8 10 -19 10 -25z m4114 20 c-4 -8 -8 -15 -10 -15 -2 0 -4 7 -4
15 0 8 4 15 10 15 5 0 7 -7 4 -15z m-208 -21 c12 5 12 2 3 -17 -12 -21 -12
-21 -20 -2 -4 11 -7 27 -7 35 0 9 2 8 5 -3 3 -11 11 -16 19 -13z m-3720 -39
c-6 -17 -26 -20 -26 -4 0 5 5 7 10 4 6 -3 10 -2 10 4 0 5 -4 13 -10 16 -5 3
-10 14 -10 23 0 13 3 11 16 -6 9 -13 13 -29 10 -37z m3916 0 c9 -20 9 -20 -6
-1 -9 11 -16 27 -15 35 0 14 1 14 6 1 3 -8 10 -24 15 -35z m-3882 15 c0 -5 -4
-10 -10 -10 -5 0 -10 5 -10 10 0 6 5 10 10 10 6 0 10 -4 10 -10z m3695 -20
c-3 -5 -12 -10 -18 -10 -7 0 -6 4 3 10 19 12 23 12 15 0z m-3688 -15 c8 -9 13
-19 9 -22 -7 -7 -36 16 -36 28 0 13 10 11 27 -6z m3639 -11 c-4 -9 -9 -15 -11
-12 -3 3 -3 13 1 22 4 9 9 15 11 12 3 -3 3 -13 -1 -22z m-3666 -19 c22 -26 6
-35 -19 -10 -17 18 -19 25 -8 25 8 0 20 -7 27 -15z m3710 11 c0 -3 -4 -8 -10
-11 -5 -3 -10 -1 -10 4 0 6 5 11 10 11 6 0 10 -2 10 -4z m-3673 -38 c-3 -8 -6
-5 -6 6 -1 11 2 17 5 13 3 -3 4 -12 1 -19z m-180 -54 l2 -29 -10 28 c-7 17
-18 27 -30 27 -11 0 -18 4 -14 10 12 19 50 -6 52 -36z m23 11 c0 -5 -5 -3 -10
5 -5 8 -10 20 -10 25 0 6 5 3 10 -5 5 -8 10 -19 10 -25z m185 -11 c1 -46 0
-46 -11 -18 -8 19 -9 35 -3 46 5 10 11 18 12 18 1 0 2 -21 2 -46z m3561 -18
c-3 -33 -2 -44 4 -31 7 16 8 13 7 -15 -2 -34 -12 -50 -32 -50 -5 0 -4 4 3 9 9
5 11 17 6 35 -7 30 -24 45 -24 22 0 -9 -5 -16 -11 -16 -7 0 -6 8 4 23 8 12 21
21 27 19 8 -2 11 8 8 32 -2 19 0 32 5 29 5 -3 7 -29 3 -57z m220 39 c-14 -14
-16 -14 -16 -2 0 9 6 17 13 20 19 7 21 -1 3 -18z m-3745 -60 c9 -19 13 -35 9
-35 -6 0 -15 15 -38 63 -2 4 0 7 5 7 4 -1 15 -16 24 -35z m-225 1 c-1 -18 -4
-22 -13 -14 -9 7 -13 7 -13 -2 0 -8 -3 -10 -7 -7 -5 5 21 41 33 46 1 1 1 -10
0 -23z m171 -28 c-3 -8 -6 -5 -6 6 -1 11 2 17 5 13 3 -3 4 -12 1 -19z m23 -24
c-18 -21 -24 -10 -8 15 7 12 14 17 16 11 2 -6 -2 -17 -8 -26z m3524 -8 c-8
-20 -18 -20 -34 -1 -11 13 -10 14 3 10 8 -4 18 -1 22 5 10 16 17 6 9 -14z
m-3472 -5 c-4 -11 -7 -11 -10 -3 -3 10 -7 10 -18 1 -13 -11 -21 1 -8 14 13 12
42 3 36 -12z m3432 -17 c3 -8 2 -12 -4 -9 -6 3 -10 -1 -10 -9 0 -9 5 -16 11
-16 5 0 7 -5 3 -11 -4 -8 -9 -7 -15 2 -7 12 -9 12 -9 0 0 -8 -3 -11 -6 -8 -6
6 14 67 21 67 2 0 6 -7 9 -16z m-3622 -16 c-7 -7 -12 -8 -12 -2 0 14 12 26 19
19 2 -3 -1 -11 -7 -17z m19 -29 c-9 -22 -10 -22 -10 -3 -1 11 2 24 6 27 12 12
14 0 4 -24z m221 -8 c8 12 9 12 6 0 -2 -8 -12 -15 -21 -17 -19 -3 -20 -2 -10
23 7 17 8 17 11 -1 3 -15 6 -16 14 -5z m3338 -6 c0 -8 -4 -15 -10 -15 -5 0 -7
7 -4 15 4 8 8 15 10 15 2 0 4 -7 4 -15z m-3274 -121 c1 -24 -1 -46 -6 -49 -4
-3 -6 3 -3 14 3 10 0 22 -7 26 -8 5 -7 11 2 23 11 14 10 15 -7 8 -16 -6 -18
-5 -7 5 13 14 17 33 4 25 -4 -2 -9 5 -9 16 -2 20 -1 20 14 -2 9 -12 17 -42 19
-66z m3242 41 c-3 -3 -9 2 -12 12 -6 14 -5 15 5 6 7 -7 10 -15 7 -18z m1 -74
l-2 -26 -4 28 c-4 28 -18 36 -25 15 -3 -7 -5 2 -5 21 l0 34 19 -23 c10 -12 17
-34 17 -49z m-3475 47 c-3 -5 2 -15 10 -24 11 -10 16 -12 16 -3 0 7 2 10 5 7
3 -3 1 -17 -4 -31 -7 -17 -7 -27 0 -31 5 -2 4 -3 -3 -2 -7 2 -12 12 -10 23 1
11 -4 26 -13 33 -12 10 -15 10 -15 -1 -1 -10 -5 -8 -15 5 -17 23 -12 35 15 33
10 -1 16 -5 14 -9z m308 -76 c17 -20 25 -39 21 -49 -5 -12 -2 -15 10 -10 21 8
39 -14 26 -33 -8 -12 -9 -11 -7 5 2 12 -3 20 -12 21 -41 3 -43 4 -32 17 11 13
-12 56 -24 44 -4 -4 -1 -13 6 -22 7 -8 8 -15 2 -15 -13 0 -23 26 -16 44 3 8 1
17 -5 21 -6 3 -11 1 -11 -4 0 -6 -5 -11 -11 -11 -8 0 -8 4 0 14 8 10 9 16 1
21 -5 3 -10 11 -10 17 0 12 14 -2 62 -60z m-105 26 c-3 -8 -6 -5 -6 6 -1 11 2
17 5 13 3 -3 4 -12 1 -19z m3223 1 c0 -5 -3 -9 -7 -10 -5 0 -16 -2 -25 -4 -15
-3 -16 0 -8 16 10 18 40 17 40 -2z m-34 -53 c1 -16 -3 -23 -11 -20 -7 3 -15
-2 -18 -10 -4 -9 -11 -16 -17 -16 -6 0 -8 5 -5 10 3 6 1 10 -4 10 -7 0 -7 7 1
20 7 11 17 20 22 20 4 0 3 -7 -4 -15 -7 -9 -10 -18 -7 -21 3 -3 13 6 22 20 10
14 18 26 19 26 0 0 2 -11 2 -24z m-71 -44 c-6 -4 -23 -22 -38 -40 -15 -19 -27
-31 -27 -27 0 12 55 75 65 75 7 0 6 -3 0 -8z m-3209 -25 c0 -13 -7 -24 -13
-24 -16 0 -16 2 -1 27 16 25 16 25 14 -3z m284 -2 c0 -3 -9 -15 -20 -27 -22
-24 -26 -18 -8 12 12 19 28 27 28 15z m2914 -29 c-6 -15 -24 -23 -24 -11 0 8
24 34 28 30 1 -1 0 -10 -4 -19z m-2904 -11 c-7 -9 -15 -13 -17 -11 -7 7 7 26
19 26 6 0 6 -6 -2 -15z m2832 -18 c-6 -7 -9 -24 -8 -38 2 -17 -2 -25 -13 -26
-9 -1 -28 -4 -44 -7 -15 -2 -25 0 -22 4 3 5 13 6 23 3 9 -3 14 -2 9 2 -4 5 7
24 25 42 31 32 51 46 30 20z m301 -4 c-7 -3 -13 -10 -13 -16 0 -7 -10 -25 -23
-41 l-23 -28 1 25 c0 14 4 29 8 33 4 5 5 0 1 -11 -6 -19 -6 -19 11 -3 19 18
11 43 -12 34 -8 -3 -12 -2 -9 2 3 5 20 9 38 9 18 0 27 -2 21 -4z m-3046 -41
l31 -27 -25 -2 c-15 0 -21 2 -14 6 8 5 6 13 -9 26 -11 10 -23 15 -28 10 -4 -4
-1 -10 6 -12 14 -5 17 -23 3 -23 -12 0 -23 29 -15 41 8 14 16 11 51 -19z
m-227 -77 c-7 -8 -17 -15 -22 -15 -15 0 -21 30 -8 45 10 13 14 13 27 -1 12
-12 13 -18 3 -29z m3186 35 c8 0 14 -4 14 -10 0 -5 -8 -6 -17 -3 -13 5 -15 2
-10 -11 4 -10 3 -15 -3 -11 -6 3 -10 13 -10 21 0 8 -4 14 -10 14 -5 0 -10 -5
-10 -12 0 -6 -3 -9 -6 -5 -11 10 8 29 23 23 8 -3 21 -6 29 -6z m-2894 -17 c22
-26 31 -56 16 -50 -7 2 -12 11 -10 20 1 9 -7 21 -18 27 -25 13 -27 2 -2 -16
16 -13 16 -13 -3 -14 -17 0 -18 -2 -5 -11 12 -8 12 -10 1 -7 -8 2 -15 15 -16
29 -4 42 11 51 37 22z m2593 -16 c1 -17 -5 -22 -23 -22 l-23 0 21 17 c13 11
19 23 14 30 -4 8 -3 10 2 5 5 -5 9 -18 9 -30z m-2534 -34 c10 -11 10 -14 2 -9
-7 4 -13 3 -13 -1 0 -5 6 -15 13 -22 10 -11 9 -13 -3 -9 -8 3 -15 17 -16 31
-1 32 -1 32 17 10z m2456 2 c0 -8 -4 -12 -9 -9 -5 3 -6 10 -3 15 9 13 12 11
12 -6z m-2742 -15 c-3 -5 -11 -10 -16 -10 -6 0 -7 5 -4 10 3 6 11 10 16 10 6
0 7 -4 4 -10z m19 -14 c-3 -9 -10 -16 -15 -16 -5 0 -4 9 3 20 14 22 21 20 12
-4z m2714 2 c9 -9 7 -14 -6 -24 -9 -8 -21 -13 -27 -14 -5 0 -3 4 5 10 8 5 11
12 8 15 -8 8 -45 -16 -46 -30 0 -5 -6 -11 -14 -13 -9 -2 -8 0 2 7 8 6 11 11 5
11 -5 0 3 11 19 25 33 28 37 30 54 13z m-2405 -10 c2 -7 -3 -18 -12 -25 -14
-11 -14 -12 0 -13 8 0 19 3 25 8 5 4 8 5 7 3 -2 -2 20 -15 47 -28 28 -13 50
-26 50 -28 0 -6 -52 14 -67 26 -7 6 -17 8 -23 4 -5 -3 -10 -1 -10 5 0 6 -5 8
-10 5 -14 -9 -70 4 -70 16 0 6 5 7 10 4 13 -8 42 14 34 26 -3 5 -1 9 5 9 5 0
11 -6 14 -12z m-293 -58 c0 -5 -2 -10 -4 -10 -3 0 -8 5 -11 10 -3 6 -1 10 4
10 6 0 11 -4 11 -10z m2590 0 c0 -5 -11 -12 -24 -16 -31 -7 -40 -30 -18 -43
22 -13 10 -14 -23 -1 l-27 10 23 18 c23 16 61 40 67 41 1 1 2 -3 2 -9z m320
-29 c13 -12 13 -13 0 -9 -8 3 -20 -2 -26 -10 -8 -11 -10 -6 -10 22 1 27 4 33
11 24 6 -7 17 -19 25 -27z m-290 13 c0 -12 -34 -33 -52 -34 -10 0 -18 5 -18
10 0 6 11 10 25 10 14 0 25 5 25 10 0 6 5 10 10 10 6 0 10 -3 10 -6z m-2230
-30 c0 -9 -28 -3 -46 11 -17 13 -16 14 14 4 17 -6 32 -13 32 -15z m-35 -22
c-6 -7 -45 9 -45 18 0 4 11 3 24 -3 14 -7 23 -13 21 -15z m79 13 c-4 -8 -10
-12 -15 -9 -11 6 -2 24 11 24 5 0 7 -7 4 -15z m138 -84 c-6 -14 -7 -14 -10 1
-2 9 -18 23 -36 32 -18 9 -39 23 -46 31 -7 9 12 1 43 -16 41 -24 54 -36 49
-48z m2246 22 c-9 -11 -13 -12 -19 -1 -5 7 -9 21 -9 30 0 17 1 17 20 1 15 -13
17 -20 8 -30z m-378 30 c0 -5 -11 -13 -25 -20 -14 -6 -25 -8 -25 -4 0 5 10 13
23 19 28 14 27 13 27 5z m28 -29 c0 -30 -21 -41 -51 -26 -21 10 -21 11 11 23
17 8 32 17 32 21 0 4 2 8 4 8 2 0 4 -12 4 -26z m-1937 -14 l24 -21 -32 16
c-32 15 -42 25 -24 25 5 0 19 -9 32 -20z m1819 -5 c-14 -8 -29 -14 -35 -14 -5
0 1 6 15 14 14 8 30 14 35 14 6 0 -1 -6 -15 -14z m-1849 -13 c-7 -2 -18 1 -23
6 -8 8 -4 9 13 5 13 -4 18 -8 10 -11z m114 0 c-3 -3 -11 0 -18 7 -9 10 -8 11
6 5 10 -3 15 -9 12 -12z m1770 8 c-3 -5 -12 -10 -18 -10 -7 0 -6 4 3 10 19 12
23 12 15 0z m-2159 -19 c16 -15 72 -21 77 -8 3 7 4 2 4 -10 -1 -24 -21 -31
-33 -12 -3 6 -17 9 -30 6 -12 -2 -29 0 -36 4 -10 7 -10 9 2 9 13 0 13 1 0 10
-8 5 -10 10 -4 10 5 0 14 -4 20 -9z m2428 -5 c-10 -8 -21 -12 -24 -10 -5 6 21
24 34 24 6 0 1 -6 -10 -14z m-1971 -13 c-7 -2 -19 -2 -25 0 -7 3 -2 5 12 5 14
0 19 -2 13 -5z m1567 -23 c-36 -31 -63 -42 -36 -14 9 8 14 20 11 25 -4 5 1 6
9 3 9 -3 16 -1 16 5 0 6 8 11 18 11 12 0 8 -8 -18 -30z m479 20 c-6 -4 -19 -5
-29 -3 -10 3 -29 -1 -41 -8 -22 -11 -23 -11 -10 4 9 11 27 16 53 15 21 -1 34
-5 27 -8z m-1987 -18 c-7 -2 -10 -8 -6 -13 3 -5 3 -9 0 -9 -3 0 -10 9 -15 19
-9 17 -8 18 11 13 13 -3 17 -7 10 -10z m-52 -2 c0 -5 -10 -10 -22 -9 -22 0
-22 1 -3 9 11 5 21 9 23 9 1 1 2 -3 2 -9z m1607 -6 c-3 -3 -12 -4 -19 -1 -8 3
-5 6 6 6 11 1 17 -2 13 -5z m-1522 -14 c3 -5 1 -10 -4 -10 -6 0 -11 5 -11 10
0 6 2 10 4 10 3 0 8 -4 11 -10z m1415 6 c0 -2 -7 -6 -15 -10 -8 -3 -15 -1 -15
4 0 6 7 10 15 10 8 0 15 -2 15 -4z m454 -12 c3 -8 2 -12 -4 -9 -6 3 -10 10
-10 16 0 14 7 11 14 -7z m-1946 -1 c-10 -2 -28 -2 -40 0 -13 2 -5 4 17 4 22 1
32 -1 23 -4z m1569 1 c-3 -3 -12 -4 -19 -1 -8 3 -5 6 6 6 11 1 17 -2 13 -5z
m-1886 -12 c-9 -3 -10 -6 -2 -12 7 -3 -1 -7 -17 -7 -39 0 -37 22 2 23 17 1 25
-1 17 -4z m449 -2 c0 -5 -2 -10 -4 -10 -3 0 -8 5 -11 10 -3 6 -1 10 4 10 6 0
11 -4 11 -10z m1290 -5 c0 -9 -12 -20 -27 -26 -38 -14 -54 -3 -15 12 17 8 32
17 32 21 0 4 2 8 5 8 3 0 5 -7 5 -15z m487 0 c0 -6 -14 -12 -31 -12 -17 0 -25
2 -17 5 9 3 10 6 2 12 -7 3 1 7 17 7 16 0 29 -6 29 -12z m-1690 -11 c-3 -3
-12 -4 -19 -1 -8 3 -5 6 6 6 11 1 17 -2 13 -5z m-7 -19 l55 -15 -55 6 c-30 3
-59 9 -64 15 -13 12 -2 11 64 -6z m1107 9 c-3 -3 -12 -4 -19 -1 -8 3 -5 6 6 6
11 1 17 -2 13 -5z m-1207 -14 c0 -5 -4 -10 -10 -10 -5 0 -10 5 -10 10 0 6 5
10 10 10 6 0 10 -4 10 -10z m1770 6 c0 -2 -7 -7 -16 -10 -8 -3 -12 -2 -9 4 6
10 25 14 25 6z m-1560 -16 c-8 -5 -24 -9 -35 -9 l-20 0 20 9 c11 5 27 9 35 9
13 1 13 0 0 -9z m1030 2 c12 -4 -11 -7 -55 -7 -41 1 -76 3 -79 5 -8 8 113 10
134 2z m-971 -6 c-2 -2 -17 -6 -34 -10 -22 -5 -26 -4 -15 4 14 9 59 15 49 6z
m838 -12 c-3 -3 -12 -4 -19 -1 -8 3 -5 6 6 6 11 1 17 -2 13 -5z m-1402 -16
c-12 -8 -72 -5 -80 3 -2 3 18 4 45 4 27 0 43 -3 35 -7z m1901 -8 c9 0 13 3 11
8 -3 4 15 7 39 8 64 1 44 -11 -26 -15 -13 -1 -13 -2 0 -11 8 -5 12 -10 8 -10
-3 0 -14 -3 -24 -7 -11 -4 -15 -3 -11 4 4 6 0 13 -8 17 -8 3 -15 11 -14 18 0
10 2 10 6 1 2 -7 11 -13 19 -13z m-1199 4 c-3 -3 -12 -4 -19 -1 -8 3 -5 6 6 6
11 1 17 -2 13 -5z m530 0 c-3 -3 -12 -4 -19 -1 -8 3 -5 6 6 6 11 1 17 -2 13
-5z m-1217 -14 c-13 -8 -12 -10 4 -10 11 0 17 -3 13 -6 -3 -4 -18 -3 -34 0
-21 6 -24 9 -12 17 7 5 21 9 29 9 13 0 13 -1 0 -10z m773 3 c-13 -2 -33 -2
-45 0 -13 2 -3 4 22 4 25 0 35 -2 23 -4z m80 0 c-7 -2 -19 -2 -25 0 -7 3 -2 5
12 5 14 0 19 -2 13 -5z m110 0 c-13 -2 -33 -2 -45 0 -13 2 -3 4 22 4 25 0 35
-2 23 -4z m90 0 c-7 -2 -21 -2 -30 0 -10 3 -4 5 12 5 17 0 24 -2 18 -5z m105
0 c-10 -2 -26 -2 -35 0 -10 3 -2 5 17 5 19 0 27 -2 18 -5z m-375 -20 c-18 -2
-48 -2 -65 0 -18 2 -4 4 32 4 36 0 50 -2 33 -4z m342 0 c-42 -3 -64 -7 -56
-12 9 -6 10 -11 2 -15 -6 -4 -11 -2 -11 3 0 6 -17 12 -37 12 l-38 2 40 7 c22
4 69 7 105 7 l65 -1 -70 -3z m-272 -10 c-18 -2 -33 -8 -33 -14 0 -5 -17 -8
-37 -8 -34 2 -35 2 -8 6 17 3 34 9 40 14 5 5 23 8 40 7 l30 -1 -32 -4z m-160
-10 c-7 -2 -19 -2 -25 0 -7 3 -2 5 12 5 14 0 19 -2 13 -5z m520 0 c-7 -2 -19
-2 -25 0 -7 3 -2 5 12 5 14 0 19 -2 13 -5z m-76 -9 c-3 -3 -12 -4 -19 -1 -8 3
-5 6 6 6 11 1 17 -2 13 -5z m-1050 -10 c-3 -3 -12 -4 -19 -1 -8 3 -5 6 6 6 11
1 17 -2 13 -5z m100 -6 c-7 -5 -3 -8 14 -8 14 0 34 -7 45 -16 19 -15 19 -16
-1 -9 -11 4 -31 9 -45 11 -23 4 -22 3 5 -11 17 -8 23 -14 15 -14 -21 0 -69 28
-50 29 8 1 2 7 -14 13 l-30 13 37 0 c22 0 32 -3 24 -8z m68 2 c8 -13 -5 -13
-25 0 -13 8 -13 10 2 10 9 0 20 -4 23 -10z m1413 -20 c-14 -4 -32 -11 -40 -15
-7 -3 -4 1 6 9 11 9 29 16 40 15 17 -1 16 -2 -6 -9z m-1229 -63 c33 -14 32
-27 -3 -27 -16 0 -18 2 -7 9 10 6 6 11 -15 19 -16 6 -24 11 -18 11 7 1 26 -5
43 -12z m1041 -11 c24 -14 24 -14 -11 -14 -20 0 -42 4 -50 9 -9 7 -4 8 16 3
23 -4 26 -3 15 5 -22 15 0 13 30 -3z m-703 -62 c-3 -3 -12 -4 -19 -1 -8 3 -5
6 6 6 11 1 17 -2 13 -5z m333 -4 c-8 -5 -31 -9 -50 -8 l-35 1 40 7 c59 11 61
11 45 0z m-283 -6 c-3 -3 -12 -4 -19 -1 -8 3 -5 6 6 6 11 1 17 -2 13 -5z"/>
<path d="M3930 4070 c0 -5 5 -10 10 -10 6 0 10 5 10 10 0 6 -4 10 -10 10 -5 0
-10 -4 -10 -10z"/>
<path d="M840 3630 c0 -5 5 -10 10 -10 6 0 10 5 10 10 0 6 -4 10 -10 10 -5 0
-10 -4 -10 -10z"/>
<path d="M2525 3027 c-185 -47 -289 -272 -202 -436 56 -104 148 -163 262 -169
126 -7 241 61 296 175 110 228 -109 492 -356 430z"/>
<path d="M2113 2191 c-68 -7 -93 -15 -81 -26 2 -3 74 -10 158 -16 160 -12 901
-7 953 6 33 9 35 20 5 30 -30 10 -942 15 -1035 6z"/>
<path d="M735 1190 c3 -5 8 -10 11 -10 2 0 4 5 4 10 0 6 -5 10 -11 10 -5 0 -7
-4 -4 -10z"/>
<path d="M3960 925 c-7 -8 -8 -15 -2 -15 5 0 15 7 22 15 7 8 8 15 2 15 -5 0
-15 -7 -22 -15z"/>
<path d="M1000 860 c0 -5 5 -10 10 -10 6 0 10 5 10 10 0 6 -4 10 -10 10 -5 0
-10 -4 -10 -10z"/>
<path d="M3560 590 c-12 -8 -11 -10 8 -10 12 0 22 5 22 10 0 13 -11 13 -30 0z"/>
<path d="M3245 4450 c3 -5 8 -10 11 -10 2 0 4 5 4 10 0 6 -5 10 -11 10 -5 0
-7 -4 -4 -10z"/>
<path d="M1430 4210 c0 -6 7 -10 15 -10 8 0 15 2 15 4 0 2 -7 6 -15 10 -8 3
-15 1 -15 -4z"/>
<path d="M4020 3985 c0 -8 7 -15 16 -15 14 0 14 3 4 15 -7 8 -14 15 -16 15 -2
0 -4 -7 -4 -15z"/>
<path d="M970 3835 c-8 -9 -8 -15 -2 -15 12 0 26 19 19 26 -2 2 -10 -2 -17
-11z"/>
<path d="M4244 3787 c3 -7 9 -20 12 -30 4 -9 11 -17 18 -16 25 3 36 -2 36 -17
0 -21 27 -47 35 -34 3 6 -1 13 -9 16 -9 3 -16 11 -16 18 0 18 -45 69 -64 72
-10 1 -15 -2 -12 -9z m36 -12 c7 -9 8 -15 2 -15 -5 0 -12 7 -16 15 -3 8 -4 15
-2 15 2 0 9 -7 16 -15z"/>
<path d="M687 3455 c-4 -9 -3 -13 3 -10 6 4 10 -6 10 -21 0 -27 -1 -27 -15 -8
-14 18 -14 17 -3 -9 8 -20 14 -24 20 -15 10 17 10 49 -1 66 -7 11 -9 10 -14
-3z"/>
<path d="M4600 3253 c0 -5 5 -15 10 -23 8 -12 10 -11 10 8 0 12 -4 22 -10 22
-5 0 -10 -3 -10 -7z"/>
<path d="M455 2870 c-3 -5 -1 -10 4 -10 6 0 11 5 11 10 0 6 -2 10 -4 10 -3 0
-8 -4 -11 -10z"/>
<path d="M430 2758 c0 -23 3 -29 9 -19 8 12 4 51 -5 51 -2 0 -4 -15 -4 -32z"/>
<path d="M570 1470 c0 -5 5 -10 11 -10 5 0 7 5 4 10 -3 6 -8 10 -11 10 -2 0
-4 -4 -4 -10z"/>
<path d="M4410 1133 c0 -15 18 -35 23 -27 3 5 -1 15 -9 22 -8 7 -14 9 -14 5z"/>
<path d="M4158 801 c-7 -11 -18 -17 -27 -13 -10 4 -13 1 -8 -11 4 -12 2 -14
-10 -10 -10 4 -14 2 -11 -7 6 -18 -22 -51 -35 -43 -6 4 -7 1 -2 -6 5 -9 17 -3
42 21 37 35 78 88 69 88 -3 0 -11 -9 -18 -19z"/>
<path d="M4090 790 c0 -5 5 -10 10 -10 6 0 10 5 10 10 0 6 -4 10 -10 10 -5 0
-10 -4 -10 -10z"/>
<path d="M3800 499 c0 -5 5 -7 10 -4 6 3 10 8 10 11 0 2 -4 4 -10 4 -5 0 -10
-5 -10 -11z"/>
<path d="M2578 143 c12 -2 32 -2 45 0 12 2 2 4 -23 4 -25 0 -35 -2 -22 -4z"/>
</g>
</svg>
