<?xml version="1.0" encoding="utf-8"?>
<svg viewBox="0 0 1024 1024" style="width: 1em; height: 1em;vertical-align: middle;fill: currentColor;overflow: hidden;" xmlns="http://www.w3.org/2000/svg">
  <path d="M 338.484 633.841 C 335.008 633.841 331.533 634.35 328.217 635.426 C 309.372 641.548 289.552 645.474 268.685 645.474 C 247.818 645.474 227.999 641.548 209.138 635.426 C 205.823 634.35 202.362 633.841 198.887 633.841 C 108.643 633.841 35.544 707.245 36.024 797.605 C 36.228 835.791 67.622 866.502 105.822 866.502 L 431.548 866.502 C 469.748 866.502 501.143 835.791 501.346 797.605 C 501.826 707.245 428.727 633.841 338.484 633.841 Z M 268.685 587.309 C 345.783 587.309 408.282 524.81 408.282 447.712 C 408.282 370.614 345.783 308.115 268.685 308.115 C 191.587 308.115 129.089 370.614 129.089 447.712 C 129.089 524.81 191.587 587.309 268.685 587.309 Z M 896.87 121.987 L 338.484 121.987 C 299.993 121.987 268.685 154.341 268.685 194.097 L 268.685 261.583 C 302.741 261.583 334.267 271.442 361.75 287.467 L 361.75 215.051 L 873.604 215.051 L 873.604 633.841 L 780.54 633.841 L 780.54 540.776 L 594.411 540.776 L 594.411 633.841 L 483.548 633.841 C 511.322 658.11 531.709 690.159 541.262 726.905 L 896.87 726.905 C 935.361 726.905 966.668 694.551 966.668 654.795 L 966.668 194.097 C 966.668 154.341 935.361 121.987 896.87 121.987 Z" fill="" style=""/>
  <ellipse style="stroke: rgb(255, 255, 255); fill: rgb(255, 255, 255);" cx="822.543" cy="266.93" rx="195.922" ry="200.246"/>
  <path d="M 998.936 252.02 C 998.936 246.256 996.367 241.031 990.843 239.41 L 967.978 233.67 C 964.387 219.296 959.668 205.762 952.186 193.417 L 962.526 175.404 C 965.3 170.348 964.471 162.878 960.388 158.795 L 937.127 135.403 C 934.582 132.857 930.739 131.488 926.98 131.488 C 924.723 131.488 922.489 131.98 920.579 133.025 L 902.242 143.076 C 889.895 135.754 876.533 130.298 862.589 126.888 L 856.633 110.449 C 855.011 104.912 849.139 99.629 843.375 99.629 L 810.195 100.181 C 804.43 100.181 798.331 104.924 796.709 110.461 L 790.597 129.362 C 776.858 132.929 763.913 137.468 752.049 144.613 L 732.702 133.542 C 730.634 132.453 728.327 131.896 725.989 131.92 C 722.303 131.92 718.58 133.193 716.095 135.679 L 692.701 158.94 C 688.63 163.011 687.55 170.432 690.323 175.488 L 701.095 195.171 C 694.109 207.016 688.837 219.792 685.436 233.118 L 665.117 239.446 C 659.593 241.067 652.111 247.096 652.111 252.86 L 652.436 285.932 C 652.436 291.696 659.581 297.737 665.117 299.358 L 683.467 305.699 C 686.901 319.208 693.218 331.95 700.11 343.658 L 689.819 363.364 C 687.057 368.42 688.366 375.89 692.449 379.973 L 715.962 403.366 C 718.508 405.912 722.399 407.281 726.194 407.281 C 728.475 407.281 730.721 406.788 732.631 405.744 L 752.013 395.164 C 764.018 402.399 777.006 407.863 790.573 411.388 L 796.697 430.938 C 798.318 436.474 803.902 444.46 809.666 444.46 L 843.483 444.484 C 849.247 444.484 855.011 436.462 856.633 430.938 L 862.601 413.838 C 876.736 410.379 890.065 403.894 902.266 396.665 L 920.64 406.224 C 922.465 407.22 924.59 407.689 926.764 407.689 C 930.631 407.689 934.641 406.212 937.247 403.594 L 960.641 380.081 C 964.712 376.01 965.792 368.468 963.018 363.413 L 953.171 345.363 C 960.749 332.859 966.405 319.285 969.947 305.098 L 990.855 299.346 C 996.379 297.725 999.441 291.672 999.441 285.908 L 998.936 252.02 Z M 827.163 372.792 C 770.83 372.792 724.981 326.954 724.981 270.609 C 724.981 214.264 770.818 168.427 827.163 168.427 C 883.508 168.427 929.345 214.264 929.345 270.609 C 929.345 326.954 883.508 372.792 827.163 372.792 Z" style=""/>
  <path d="M 828.987 173.083 C 775.537 173.083 732.053 216.566 732.053 270.017 C 732.053 323.468 775.537 366.952 828.987 366.952 C 882.438 366.952 925.922 323.468 925.922 270.017 C 925.922 216.566 882.45 173.083 828.987 173.083 Z M 827.607 306.116 C 799.37 306.12 781.716 277.556 795.831 253.099 C 802.382 241.749 814.489 232.756 827.595 232.754 C 855.831 232.75 873.484 263.314 859.37 287.77 C 852.819 299.121 840.711 306.113 827.607 306.116 Z" style=""/>
</svg>