<?xml version="1.0" encoding="utf-8"?>
<svg viewBox="0 0 1024 1024" style="width: 1em; height: 1em;vertical-align: middle;fill: currentColor;overflow: hidden;" xmlns="http://www.w3.org/2000/svg">
  <path d="M 604.68 530.034 C 569.297 492.702 526.594 463.071 479.24 442.994 C 450.995 476.371 412.126 499.015 369.16 507.122 L 369.288 507.25 L 351.496 525.042 L 369.16 578.93 L 333.448 767.858 L 297.736 578.93 L 315.4 525.042 L 297.608 507.25 L 297.736 507.122 C 253.96 498.802 215.432 475.762 187.656 442.994 C 140.242 463.148 97.495 492.866 62.088 530.29 C 39.415 554.106 26.766 585.727 26.76 618.61 L 26.76 726.386 C 26.76 760.177 54.153 787.57 87.944 787.57 L 578.568 787.57 C 612.359 787.57 639.752 760.177 639.752 726.386 L 639.752 618.482 C 640.136 585.458 627.336 553.842 604.68 530.034 Z" transform="matrix(1, 0, 0, 1, 0, -1.4210854715202004e-14)"/>
  <ellipse style="stroke: rgb(255, 255, 255); fill: rgb(255, 255, 255);" cx="621.632" cy="689.056" rx="195.922" ry="200.246" transform="matrix(1, 0, 0, 1, 0, -1.4210854715202004e-14)"/>
  <path d="M 621.889 606.489 C 568.439 606.489 524.955 649.972 524.955 703.423 C 524.955 756.874 568.439 800.358 621.889 800.358 C 675.34 800.358 718.824 756.874 718.824 703.423 C 718.824 649.972 675.352 606.489 621.889 606.489 Z M 620.509 739.522 C 592.272 739.526 574.618 708.962 588.733 684.505 C 595.284 673.155 607.391 666.162 620.497 666.16 C 648.733 666.156 666.386 696.72 652.272 721.176 C 645.721 732.527 633.613 739.519 620.509 739.522 Z" style="" transform="matrix(1, 0, 0, 1, 0, -1.4210854715202004e-14)"/>
  <path d="M 793.838 685.426 C 793.838 679.662 791.269 674.437 785.745 672.816 L 762.88 667.076 C 759.289 652.702 754.57 639.168 747.088 626.823 L 757.428 608.81 C 760.202 603.754 759.373 596.284 755.29 592.201 L 732.029 568.809 C 729.484 566.263 725.641 564.894 721.882 564.894 C 719.625 564.894 717.391 565.386 715.481 566.431 L 697.144 576.482 C 684.797 569.16 671.435 563.704 657.491 560.294 L 651.535 543.855 C 649.913 538.318 644.041 533.035 638.277 533.035 L 605.097 533.587 C 599.332 533.587 593.233 538.33 591.611 543.867 L 585.499 562.768 C 571.76 566.335 558.815 570.874 546.951 578.019 L 527.604 566.948 C 525.536 565.859 523.229 565.302 520.891 565.326 C 517.205 565.326 513.482 566.599 510.997 569.085 L 487.603 592.346 C 483.532 596.417 482.452 603.838 485.225 608.894 L 495.997 628.577 C 489.011 640.422 483.739 653.198 480.338 666.524 L 460.019 672.852 C 454.495 674.473 447.013 680.502 447.013 686.266 L 447.338 719.338 C 447.338 725.102 454.483 731.143 460.019 732.764 L 478.369 739.105 C 481.803 752.614 488.12 765.356 495.012 777.064 L 484.721 796.77 C 481.959 801.826 483.268 809.296 487.351 813.379 L 510.864 836.772 C 513.41 839.318 517.301 840.687 521.096 840.687 C 523.377 840.687 525.623 840.194 527.533 839.15 L 546.915 828.57 C 558.92 835.805 571.908 841.269 585.475 844.794 L 591.599 864.344 C 593.22 869.88 598.804 877.866 604.568 877.866 L 638.385 877.89 C 644.149 877.89 649.913 869.868 651.535 864.344 L 657.503 847.244 C 671.638 843.785 684.967 837.3 697.168 830.071 L 715.542 839.63 C 717.367 840.626 719.492 841.095 721.666 841.095 C 725.533 841.095 729.543 839.618 732.149 837 L 755.543 813.487 C 759.614 809.416 760.694 801.874 757.92 796.819 L 748.073 778.769 C 755.651 766.265 761.307 752.691 764.849 738.504 L 785.757 732.752 C 791.281 731.131 794.343 725.078 794.343 719.314 L 793.838 685.426 Z M 622.065 806.198 C 565.732 806.198 519.883 760.36 519.883 704.015 C 519.883 647.67 565.72 601.833 622.065 601.833 C 678.41 601.833 724.247 647.67 724.247 704.015 C 724.247 760.36 678.41 806.198 622.065 806.198 Z" style="" transform="matrix(1, 0, 0, 1, 0, -1.4210854715202004e-14)"/>
  <path d="M 64.52 156.914 L 153.992 193.266 L 153.992 240.242 C 153.992 262.386 166.28 282.482 185.992 292.466 C 186.888 292.978 188.168 293.49 189.064 294.002 L 189.064 320.242 C 189.064 399.986 253.704 464.754 333.576 464.754 C 413.448 464.754 478.088 400.114 478.088 320.242 L 478.088 294.002 C 479.112 293.49 480.264 292.978 481.16 292.466 C 500.872 282.482 513.16 262.386 513.16 240.242 L 513.16 193.266 L 602.632 156.914 C 616.328 151.41 616.328 132.082 602.632 126.45 L 371.976 32.498 C 347.393 22.515 319.886 22.515 295.304 32.498 L 64.52 126.45 C 50.952 132.082 50.952 151.41 64.52 156.914 Z M 478.984 240.242 C 478.984 249.458 473.864 257.778 465.672 262.002 C 440.328 274.93 389.384 296.69 333.576 296.69 C 277.768 296.69 226.952 274.93 201.48 262.002 C 193.288 257.906 188.168 249.458 188.168 240.37 L 188.168 207.346 L 295.176 250.994 C 319.752 260.978 347.272 260.978 371.848 250.994 L 478.856 207.346 L 478.856 240.242 L 478.984 240.242 Z" transform="matrix(1, 0, 0, 1, 0, -1.4210854715202004e-14)"/>
</svg>