<?xml version="1.0" encoding="utf-8"?>
<!-- Svg Vector Icons : http://www.onlinewebfonts.com/icon -->
<!DOCTYPE svg PUBLIC "-//W3C//DTD SVG 1.1//EN" "http://www.w3.org/Graphics/SVG/1.1/DTD/svg11.dtd">
<svg version="1.1" xmlns="http://www.w3.org/2000/svg" xmlns:xlink="http://www.w3.org/1999/xlink" x="0px" y="0px" viewBox="0 0 256 256" enable-background="new 0 0 256 256" xml:space="preserve">
<metadata> Svg Vector Icons : http://www.onlinewebfonts.com/icon </metadata>
<g><g><g><path fill="#000000" d="M88.2,21c-20.8,6-38,11-38.2,11.2c-0.2,0.2,2,5,4.9,10.6L60,53l0.3,7.4c0.3,8.2,0.7,9.5,4.1,12.7c1.1,1.1,3.3,2.6,4.9,3.5l2.9,1.6v9.6c0,8.8,0.1,10,1.4,14.7c10.5,37.6,52.6,53.4,85.6,32.3c8.2-5.2,16.7-15.8,20.8-25.6c3-7.4,4.1-14.2,3.8-23.2l-0.3-7.7l2.8-1.4c3.2-1.7,6.7-5,8-7.4c0.7-1.3,1-3.5,1.2-9.1l0.3-7.4l5.2-10.2c2.8-5.6,5-10.4,4.8-10.6C205,31.4,129.1,9.9,127.6,10C126.7,10.1,109,15,88.2,21z M150.7,43.1v11.5l-11.4,5.7l-11.4,5.6l-11.4-5.6l-11.4-5.7V43.1V31.6h22.7h22.7L150.7,43.1L150.7,43.1z M101.5,86.2c15.7,2.3,34.4,2.4,50.2,0.4c4.5-0.6,8.7-1.2,9.1-1.4c0.7-0.3,0.8,0.2,0.8,3.9c0,14.1-9.5,26.9-23.2,31.5c-10.1,3.3-20.6,1.8-29.6-4.1c-4.9-3.3-8.5-7.5-11.3-13.2c-2.6-5.5-3.4-8.8-3.4-14.3c0-3.5,0.1-4,1-3.7C95.6,85.3,98.5,85.8,101.5,86.2z"/><path fill="#000000" d="M111.2,157.1c-34.7,4.2-60.7,21.5-69.7,46.4c-2.9,8.1-3.4,12.3-3.4,28.4V246H128h89.8l-0.2-16.3c-0.3-17.7-0.4-19-4.1-28.4c-9.1-23.6-35.5-40.3-69.7-44.4C135.7,156.1,119.3,156.1,111.2,157.1z M134.2,180.1c7.3,4.9,6.7,15.7-1.1,19.6c-3.6,1.8-6.8,1.8-10.3,0c-4.4-2.2-7.1-7.4-6.2-11.9c0.9-4,3.5-7.3,7.1-8.8c0.7-0.3,2.9-0.5,4.8-0.4C131.3,178.7,132.5,179,134.2,180.1z M134.2,213.9c7.4,4.9,6.7,15.8-1.3,19.7c-3.6,1.8-7.3,1.6-10.9-0.5c-8-4.7-6.9-16.7,1.7-20.4c0.7-0.3,2.9-0.5,4.8-0.4C131.3,212.5,132.5,212.8,134.2,213.9z"/></g></g></g>
</svg>